<mxfile host="Electron" agent="Mozilla/5.0 (Windows NT 10.0; Win64; x64) AppleWebKit/537.36 (KHTML, like Gecko) draw.io/27.0.9 Chrome/134.0.6998.205 Electron/35.4.0 Safari/537.36" version="27.0.9">
  <diagram name="Page-1" id="9XndoTKUcSVgTFLDHP1T">
    <mxGraphModel dx="496" dy="298" grid="1" gridSize="10" guides="1" tooltips="1" connect="1" arrows="1" fold="1" page="1" pageScale="1" pageWidth="850" pageHeight="1100" math="0" shadow="0">
      <root>
        <mxCell id="0" />
        <mxCell id="1" parent="0" />
        <mxCell id="eOataV_EsTTsMZcEXUNP-1" value="" style="endArrow=none;html=1;rounded=0;" edge="1" parent="1">
          <mxGeometry width="50" height="50" relative="1" as="geometry">
            <mxPoint x="280" y="120" as="sourcePoint" />
            <mxPoint x="160" y="80" as="targetPoint" />
          </mxGeometry>
        </mxCell>
        <mxCell id="eOataV_EsTTsMZcEXUNP-2" value="" style="endArrow=none;html=1;rounded=0;" edge="1" parent="1">
          <mxGeometry width="50" height="50" relative="1" as="geometry">
            <mxPoint x="280" y="200" as="sourcePoint" />
            <mxPoint x="280" y="80" as="targetPoint" />
          </mxGeometry>
        </mxCell>
        <mxCell id="eOataV_EsTTsMZcEXUNP-3" value="" style="endArrow=none;html=1;rounded=0;" edge="1" parent="1">
          <mxGeometry width="50" height="50" relative="1" as="geometry">
            <mxPoint x="160" y="120" as="sourcePoint" />
            <mxPoint x="520" y="120" as="targetPoint" />
          </mxGeometry>
        </mxCell>
        <mxCell id="eOataV_EsTTsMZcEXUNP-4" value="Set/Reset" style="text;html=1;align=center;verticalAlign=middle;whiteSpace=wrap;rounded=0;" vertex="1" parent="1">
          <mxGeometry x="220" y="80" width="60" height="30" as="geometry" />
        </mxCell>
        <mxCell id="eOataV_EsTTsMZcEXUNP-5" value="Q&lt;sub&gt;K-1&lt;/sub&gt;" style="text;html=1;align=center;verticalAlign=middle;whiteSpace=wrap;rounded=0;" vertex="1" parent="1">
          <mxGeometry x="160" y="90" width="60" height="30" as="geometry" />
        </mxCell>
        <mxCell id="eOataV_EsTTsMZcEXUNP-8" value="&lt;font style=&quot;font-size: 15px;&quot;&gt;00&lt;/font&gt;" style="text;html=1;align=center;verticalAlign=middle;whiteSpace=wrap;rounded=0;" vertex="1" parent="1">
          <mxGeometry x="280" y="90" width="60" height="30" as="geometry" />
        </mxCell>
        <mxCell id="eOataV_EsTTsMZcEXUNP-9" value="&lt;font style=&quot;font-size: 15px;&quot;&gt;01&lt;/font&gt;" style="text;html=1;align=center;verticalAlign=middle;whiteSpace=wrap;rounded=0;" vertex="1" parent="1">
          <mxGeometry x="340" y="90" width="60" height="30" as="geometry" />
        </mxCell>
        <mxCell id="eOataV_EsTTsMZcEXUNP-10" value="" style="endArrow=none;html=1;rounded=0;" edge="1" parent="1">
          <mxGeometry width="50" height="50" relative="1" as="geometry">
            <mxPoint x="340" y="200" as="sourcePoint" />
            <mxPoint x="340" y="80" as="targetPoint" />
          </mxGeometry>
        </mxCell>
        <mxCell id="eOataV_EsTTsMZcEXUNP-11" value="" style="endArrow=none;html=1;rounded=0;" edge="1" parent="1">
          <mxGeometry width="50" height="50" relative="1" as="geometry">
            <mxPoint x="400" y="200" as="sourcePoint" />
            <mxPoint x="400" y="80" as="targetPoint" />
          </mxGeometry>
        </mxCell>
        <mxCell id="eOataV_EsTTsMZcEXUNP-12" value="&lt;font style=&quot;font-size: 15px;&quot;&gt;11&lt;/font&gt;" style="text;html=1;align=center;verticalAlign=middle;whiteSpace=wrap;rounded=0;" vertex="1" parent="1">
          <mxGeometry x="400" y="90" width="60" height="30" as="geometry" />
        </mxCell>
        <mxCell id="eOataV_EsTTsMZcEXUNP-13" value="" style="endArrow=none;html=1;rounded=0;" edge="1" parent="1">
          <mxGeometry width="50" height="50" relative="1" as="geometry">
            <mxPoint x="460" y="200" as="sourcePoint" />
            <mxPoint x="460" y="80" as="targetPoint" />
          </mxGeometry>
        </mxCell>
        <mxCell id="eOataV_EsTTsMZcEXUNP-14" value="&lt;font style=&quot;font-size: 15px;&quot;&gt;10&lt;/font&gt;" style="text;html=1;align=center;verticalAlign=middle;whiteSpace=wrap;rounded=0;" vertex="1" parent="1">
          <mxGeometry x="460" y="90" width="60" height="30" as="geometry" />
        </mxCell>
        <mxCell id="eOataV_EsTTsMZcEXUNP-16" value="&lt;font style=&quot;font-size: 15px;&quot;&gt;0&lt;/font&gt;" style="text;html=1;align=center;verticalAlign=middle;whiteSpace=wrap;rounded=0;" vertex="1" parent="1">
          <mxGeometry x="220" y="130" width="60" height="30" as="geometry" />
        </mxCell>
        <mxCell id="eOataV_EsTTsMZcEXUNP-17" value="&lt;font style=&quot;font-size: 15px;&quot;&gt;1&lt;/font&gt;" style="text;html=1;align=center;verticalAlign=middle;whiteSpace=wrap;rounded=0;" vertex="1" parent="1">
          <mxGeometry x="220" y="160" width="60" height="30" as="geometry" />
        </mxCell>
        <mxCell id="eOataV_EsTTsMZcEXUNP-18" value="&lt;font style=&quot;font-size: 15px;&quot;&gt;0&lt;/font&gt;" style="text;html=1;align=center;verticalAlign=middle;whiteSpace=wrap;rounded=0;" vertex="1" parent="1">
          <mxGeometry x="280" y="130" width="60" height="30" as="geometry" />
        </mxCell>
        <mxCell id="eOataV_EsTTsMZcEXUNP-19" value="&lt;font style=&quot;font-size: 15px;&quot;&gt;1&lt;/font&gt;" style="text;html=1;align=center;verticalAlign=middle;whiteSpace=wrap;rounded=0;" vertex="1" parent="1">
          <mxGeometry x="280" y="160" width="60" height="30" as="geometry" />
        </mxCell>
        <mxCell id="eOataV_EsTTsMZcEXUNP-20" value="&lt;font style=&quot;font-size: 15px;&quot;&gt;0&lt;/font&gt;" style="text;html=1;align=center;verticalAlign=middle;whiteSpace=wrap;rounded=0;" vertex="1" parent="1">
          <mxGeometry x="340" y="130" width="60" height="30" as="geometry" />
        </mxCell>
        <mxCell id="eOataV_EsTTsMZcEXUNP-21" value="&lt;font style=&quot;font-size: 15px;&quot;&gt;0&lt;/font&gt;" style="text;html=1;align=center;verticalAlign=middle;whiteSpace=wrap;rounded=0;" vertex="1" parent="1">
          <mxGeometry x="340" y="160" width="60" height="30" as="geometry" />
        </mxCell>
        <mxCell id="eOataV_EsTTsMZcEXUNP-22" value="&lt;font style=&quot;font-size: 15px;&quot;&gt;0&lt;/font&gt;" style="text;html=1;align=center;verticalAlign=middle;whiteSpace=wrap;rounded=0;" vertex="1" parent="1">
          <mxGeometry x="400" y="130" width="60" height="30" as="geometry" />
        </mxCell>
        <mxCell id="eOataV_EsTTsMZcEXUNP-23" value="&lt;font style=&quot;font-size: 15px;&quot;&gt;0&lt;/font&gt;" style="text;html=1;align=center;verticalAlign=middle;whiteSpace=wrap;rounded=0;" vertex="1" parent="1">
          <mxGeometry x="400" y="160" width="60" height="30" as="geometry" />
        </mxCell>
        <mxCell id="eOataV_EsTTsMZcEXUNP-24" value="&lt;font style=&quot;font-size: 15px;&quot;&gt;1&lt;/font&gt;" style="text;html=1;align=center;verticalAlign=middle;whiteSpace=wrap;rounded=0;" vertex="1" parent="1">
          <mxGeometry x="460" y="130" width="60" height="30" as="geometry" />
        </mxCell>
        <mxCell id="eOataV_EsTTsMZcEXUNP-25" value="&lt;font style=&quot;font-size: 15px;&quot;&gt;1&lt;/font&gt;" style="text;html=1;align=center;verticalAlign=middle;whiteSpace=wrap;rounded=0;" vertex="1" parent="1">
          <mxGeometry x="460" y="160" width="60" height="30" as="geometry" />
        </mxCell>
        <mxCell id="eOataV_EsTTsMZcEXUNP-27" value="" style="endArrow=none;html=1;rounded=0;" edge="1" parent="1">
          <mxGeometry width="50" height="50" relative="1" as="geometry">
            <mxPoint x="160" y="159.43" as="sourcePoint" />
            <mxPoint x="520" y="159.43" as="targetPoint" />
          </mxGeometry>
        </mxCell>
        <mxCell id="eOataV_EsTTsMZcEXUNP-28" value="" style="ellipse;whiteSpace=wrap;html=1;fillColor=none;strokeColor=#b85450;" vertex="1" parent="1">
          <mxGeometry x="460" y="120" width="60" height="80" as="geometry" />
        </mxCell>
        <mxCell id="eOataV_EsTTsMZcEXUNP-30" value="" style="curved=1;endArrow=none;html=1;rounded=0;startFill=0;fillColor=#f8cecc;strokeColor=#b85450;" edge="1" parent="1">
          <mxGeometry width="50" height="50" relative="1" as="geometry">
            <mxPoint x="270" y="200" as="sourcePoint" />
            <mxPoint x="270" y="160" as="targetPoint" />
            <Array as="points">
              <mxPoint x="340" y="200" />
              <mxPoint x="340" y="160" />
            </Array>
          </mxGeometry>
        </mxCell>
        <mxCell id="eOataV_EsTTsMZcEXUNP-31" value="" style="curved=1;endArrow=none;html=1;rounded=0;startFill=0;fillColor=#f8cecc;strokeColor=#b85450;" edge="1" parent="1">
          <mxGeometry width="50" height="50" relative="1" as="geometry">
            <mxPoint x="530" y="200" as="sourcePoint" />
            <mxPoint x="530" y="160" as="targetPoint" />
            <Array as="points">
              <mxPoint x="460" y="200" />
              <mxPoint x="460" y="160" />
            </Array>
          </mxGeometry>
        </mxCell>
      </root>
    </mxGraphModel>
  </diagram>
</mxfile>
